<svg xmlns="http://www.w3.org/2000/svg" viewBox="0 0 1965.8 1213.56"><defs><style>.a{fill:#ffc15d;}.a,.b,.c,.d,.e,.f,.g,.h,.i,.j{stroke:#eaedf2;stroke-width:8px;}.b{fill:#5eebc4;}.c{fill:#f8648c;}.d{fill:#4f65f1;}.e{fill:#fa7f98;}.f{fill:#22cafe;}.g{fill:#2642f1;}.h{fill:#ffda5d;}.i{fill:#f8f7f8;}.j{fill:#eaedf2;}</style></defs><title>back-00-d</title><path class="a" d="M2404.5,1154.69l-144.67-95.28c-99.46,40.8-175.77,34.62-271.61-28.49L1715.15,851.09c-168.74-111.13-272.21-135.17-385.27-34.8-41.8,37.1,6,74.44,6,74.44l49.87,50.32s84.86,96.39,169.86,152.36l273.07,179.83c124.77,82.17,238.39,102.55,367.76,40C2273.8,1273.72,2404.5,1154.69,2404.5,1154.69Z"/><path class="b" d="M1474.1,708.88l51.5,263.67c1.38,7.84,2.44,14.51-2.41,22.68L1384.73,798.52,1100.36,890q-7.11,1.82-11.56-.83c-5.2-3.09-7.45-9.45-4.37-14.65l61.3-103.29c4.85-8.17,11.21-10.42,18.75-13l256.12-81.1c15.09-5.11,25.61-5.9,36,.27S1471.36,693.18,1474.1,708.88Z"/><path class="c" d="M1877.36,957.9l-144.67-95.27c-99.46,40.79-175.77,34.62-271.61-28.5l47.1,227.87c101.38,66.76,4.42.25,104.62,69.14,12.13,0,32.2-3,56.46-14.72C1746.65,1076.93,1877.36,957.9,1877.36,957.9Z"/><path class="d" d="M1591.59,1212.13l-106.27-61.35c-5.75-75.94-33.89-122.29-104.29-162.94L1180.45,872c-170-98.17-197.3-170.59-82.26-369.84l43.72-75.72c8.43-14.61-35.81,181.83-22.53,189.49,110.26,63.66,101.4,42,163.83,78.07l200.58,115.8c91.66,52.92,140.64,118.39,142.09,220.18C1625.45,1091.57,1591.59,1212.13,1591.59,1212.13Z"/><path class="d" d="M235.82,1048.52c237.54-142.73,345.6-126.83,512.86,151.54l-148.92,25.35-57,80.38s-81.17-54.44-157.49-8.59Z"/><path class="e" d="M16,1381.78c107.49,1.3,176.16-32.54,242-126.52L445.68,987.51c159.07-227,264.28-256.35,530.26-69.94L830.7,1097.89c-67.09-38.23-96.3-16.77-147.41,56.15L495.64,1421.79c-85.75,122.35-183.88,183.14-327.21,172.59C81.94,1586.16,16,1381.78,16,1381.78Z"/><path class="a" d="M-24.31,1595.55l29.78-242.5C39.24,1078,118.3,1002.62,440.64,1042.2l122.49,15c23.63,2.9,39,20,36.34,41.54l-19.26,156.88c-2.64,21.49-21.41,32.27-45.05,29.36l-101-12.4c-109.6-13.45-128.33,14.79-140.73,115.78l-24.62,200.49S116.1,1614.83-24.31,1595.55Z"/><path class="f" d="M309.65,1181.53l99.42-141.85c107.5,1.3,176.17-32.54,242-126.52L838.75,645.41c159.07-227,519.11,202.52,416.26,130.44-90.43-63.38-120.24-47.25-178.65,36.09L888.71,1079.69C803,1202,704.83,1262.82,561.5,1252.27,475,1244.06,309.65,1181.53,309.65,1181.53Z"/><path class="b" d="M787.43,562.34l257.31-77.4c7.68-2.14,14.2-3.86,22.82.15l108.87,50.77c5.48,2.56,7.21,9.08,4.65,14.57q-2.19,4.7-9.08,7.2L885.5,642.4l119.22,274q2.5,6.89.32,11.59c-2.56,5.48-8.67,8.35-14.15,5.8L882,883c-8.61-4-11.49-10.13-14.78-17.38L761.13,618.73c-6.58-14.51-8.41-24.9-3.3-35.86S772.08,566.63,787.43,562.34Z"/><path class="g" d="M1195.89,1111.33,1046.06,712.05l24.59-467.22c-69.06-15.94-87.57,18.27-102.26,81.92l-12.57,50.93c-21.57,93.43-65.33,153.22-153.14,181.44,66.55,63.86,81,137.09,59.46,230.52L814.62,995.47c-14.7,63.64-9.59,84.78,59.47,100.73l62.28,14.38C1112.56,1147.94,1195.89,1111.33,1195.89,1111.33Z"/><path class="h" d="M1156.25,712.43c-72.84-122.51-93.89-180-93.38-213.61s-41.11-65.44-44.42-50.27c-5.39,24.67-33.54-8.37-44.37,13.45-22.42,45.19-57.34,84.13-107.42,117.67C984,641.58,1033.05,737.1,1040.27,874.84l15.9,303.42c4.92,93.82,20.35,121,122.16,115.7l91.83-4.81C1292.12,1288,1243.06,858.44,1156.25,712.43Z"/><path class="i" d="M1318.14,24.46l-70.21,34.25c-7,48-27,76.16-73.47,98.85l-132.53,64.63C929.59,277,909.06,321.77,973.27,453.41l24.4,50c4.71,9.66,14.27,13.68,23.05,9.4l64.07-31.25c8.78-4.28,10.62-13.87,5.91-23.52l-20.12-41.25c-21.83-44.76-12.54-56.9,28.71-77l132.53-64.64c60.56-29.53,94.57-68.94,100-133.52C1334.29,102.53,1318.14,24.46,1318.14,24.46Z"/><path class="i" d="M1237.24,1175l-66.88-103c29.36-70.31,25.32-124.41-19-192.62L1025.15,685.1c-107-164.72-98.42-241.66,94.61-367l20-13.08c14.15-9.19,30.3-6.87,38.66,6l61,93.94c8.36,12.87,3.08,27.28-11.07,36.47l-7.14,4.72c-65.63,42.63-62.93,66.5-23.64,127L1323.82,767.4c57.68,88.8,71.62,169.41,26.69,260.81C1322.18,1082.89,1237.24,1175,1237.24,1175Z"/><path class="j" d="M1117.36,597.68C1043,553,1000.88,499.39,994.75,420.52c26.59-32.22,67.62-65.15,124.89-102.34L1193,270.56c14.15-9.19,30.28-6.87,38.64,6l61,93.91c8.36,12.87,3.08,27.26-11.07,36.45l-60.47,39.27c-65.6,42.6-62.91,66.46-23.65,126.92l77.4,119.19Z"/></svg>